<svg xmlns="http://www.w3.org/2000/svg" viewBox="0 0 800 600" width="800" height="600" role="img" aria-label="Sliding patio door: two panels, one fixed and one sliding sideways"><rect width="800" height="600" fill="#161618"/><g stroke="#8a8a91" stroke-width="1" opacity="0.13"><line x1="0" y1="0" x2="0" y2="600"/><line x1="50" y1="0" x2="50" y2="600"/><line x1="100" y1="0" x2="100" y2="600"/><line x1="150" y1="0" x2="150" y2="600"/><line x1="200" y1="0" x2="200" y2="600"/><line x1="250" y1="0" x2="250" y2="600"/><line x1="300" y1="0" x2="300" y2="600"/><line x1="350" y1="0" x2="350" y2="600"/><line x1="400" y1="0" x2="400" y2="600"/><line x1="450" y1="0" x2="450" y2="600"/><line x1="500" y1="0" x2="500" y2="600"/><line x1="550" y1="0" x2="550" y2="600"/><line x1="600" y1="0" x2="600" y2="600"/><line x1="650" y1="0" x2="650" y2="600"/><line x1="700" y1="0" x2="700" y2="600"/><line x1="750" y1="0" x2="750" y2="600"/></g><defs>
<marker id="a" viewBox="0 0 10 10" refX="7.5" refY="5" markerWidth="4.5" markerHeight="4.5" orient="auto">
<path d="M0 0 L10 5 L0 10 z" fill="#e9ee1b"/></marker>
<linearGradient id="g" x1="0" y1="0" x2="0.4" y2="1">
<stop offset="0" stop-color="#3a464a"/><stop offset="1" stop-color="#232b2e"/></linearGradient>
</defs><rect x="176" y="60" width="448" height="452" fill="#d9d9d6" rx="2"/><rect x="190" y="74" width="210.0" height="424" fill="#d9d9d6" rx="2"/><rect x="206" y="90" width="178.0" height="392" fill="url(#g)"/><rect x="400.0" y="74" width="210.0" height="424" fill="#d9d9d6" rx="2"/><rect x="416.0" y="90" width="178.0" height="392" fill="url(#g)"/><path d="M 526.0 286.0 L 425.20000000000005 286.0" fill="none" stroke="#e9ee1b" stroke-width="6" stroke-linecap="round" marker-end="url(#a)"/><circle cx="418.9" cy="307.20000000000005" r="10" fill="#e9ee1b"/><text x="400.0" y="570" fill="#8a8a91" text-anchor="middle" font-family="ui-monospace,SFMono-Regular,monospace" font-size="23" letter-spacing="4">ONE PANEL SLIDES</text></svg>